<svg xmlns="http://www.w3.org/2000/svg" xmlns:xlink="http://www.w3.org/1999/xlink" width="500" zoomAndPan="magnify" viewBox="0 0 375 374.999991" height="500" preserveAspectRatio="xMidYMid meet" version="1.2"><defs><clipPath id="e447461566"><path d="M 3.078125 3.078125 L 371.921875 3.078125 L 371.921875 371.921875 L 3.078125 371.921875 Z M 3.078125 3.078125 "/></clipPath><clipPath id="3d04c0b90b"><path d="M 187.5 3.078125 C 85.644531 3.078125 3.078125 85.644531 3.078125 187.5 C 3.078125 289.355469 85.644531 371.921875 187.5 371.921875 C 289.355469 371.921875 371.921875 289.355469 371.921875 187.5 C 371.921875 85.644531 289.355469 3.078125 187.5 3.078125 Z M 187.5 3.078125 "/></clipPath><clipPath id="aac53dc8d8"><path d="M 162.171875 139.816406 L 212.867188 139.816406 L 212.867188 290.742188 L 162.171875 290.742188 Z M 162.171875 139.816406 "/></clipPath><clipPath id="42b0de7ecf"><path d="M 162.171875 77 L 212.867188 77 L 212.867188 128 L 162.171875 128 Z M 162.171875 77 "/></clipPath></defs><g id="22ddf81f56"><g clip-rule="nonzero" clip-path="url(#e447461566)"><g clip-rule="nonzero" clip-path="url(#3d04c0b90b)"><path style=" stroke:none;fill-rule:nonzero;fill:#ef4c28;fill-opacity:1;" d="M 3.078125 3.078125 L 371.921875 3.078125 L 371.921875 371.921875 L 3.078125 371.921875 Z M 3.078125 3.078125 "/></g></g><g clip-rule="nonzero" clip-path="url(#aac53dc8d8)"><path style=" stroke:none;fill-rule:nonzero;fill:#ffffff;fill-opacity:1;" d="M 187.5 139.890625 C 188.328125 139.890625 189.15625 139.933594 189.980469 140.015625 C 190.804688 140.09375 191.625 140.214844 192.4375 140.378906 C 193.25 140.539062 194.054688 140.742188 194.847656 140.984375 C 195.640625 141.222656 196.421875 141.503906 197.1875 141.820312 C 197.953125 142.136719 198.703125 142.492188 199.433594 142.882812 C 200.164062 143.273438 200.875 143.699219 201.5625 144.160156 C 202.253906 144.621094 202.921875 145.113281 203.5625 145.640625 C 204.203125 146.167969 204.816406 146.722656 205.402344 147.308594 C 205.988281 147.894531 206.542969 148.507812 207.070312 149.148438 C 207.597656 149.789062 208.089844 150.457031 208.550781 151.144531 C 209.011719 151.832031 209.4375 152.542969 209.828125 153.277344 C 210.21875 154.007812 210.574219 154.757812 210.890625 155.523438 C 211.207031 156.289062 211.488281 157.070312 211.726562 157.859375 C 211.96875 158.65625 212.167969 159.457031 212.332031 160.273438 C 212.492188 161.085938 212.617188 161.90625 212.695312 162.730469 C 212.777344 163.554688 212.816406 164.382812 212.816406 165.210938 L 212.816406 265.410156 C 212.816406 266.238281 212.777344 267.066406 212.695312 267.894531 C 212.617188 268.71875 212.492188 269.535156 212.332031 270.351562 C 212.167969 271.164062 211.96875 271.96875 211.726562 272.761719 C 211.488281 273.554688 211.207031 274.335938 210.890625 275.101562 C 210.574219 275.867188 210.21875 276.613281 209.828125 277.347656 C 209.4375 278.078125 209.011719 278.789062 208.550781 279.476562 C 208.089844 280.167969 207.597656 280.832031 207.070312 281.472656 C 206.542969 282.113281 205.988281 282.730469 205.402344 283.316406 C 204.816406 283.902344 204.203125 284.457031 203.5625 284.984375 C 202.921875 285.511719 202.253906 286.003906 201.5625 286.464844 C 200.875 286.925781 200.164062 287.351562 199.433594 287.742188 C 198.703125 288.132812 197.953125 288.484375 197.1875 288.804688 C 196.421875 289.121094 195.640625 289.402344 194.847656 289.640625 C 194.054688 289.882812 193.25 290.082031 192.4375 290.246094 C 191.625 290.40625 190.804688 290.527344 189.980469 290.609375 C 189.15625 290.691406 188.328125 290.730469 187.5 290.730469 C 186.667969 290.730469 185.839844 290.691406 185.015625 290.609375 C 184.191406 290.527344 183.371094 290.40625 182.558594 290.246094 C 181.746094 290.082031 180.941406 289.882812 180.148438 289.640625 C 179.355469 289.402344 178.574219 289.121094 177.808594 288.804688 C 177.042969 288.484375 176.292969 288.132812 175.5625 287.742188 C 174.832031 287.351562 174.121094 286.925781 173.429688 286.464844 C 172.742188 286.003906 172.074219 285.511719 171.433594 284.984375 C 170.792969 284.457031 170.179688 283.902344 169.59375 283.316406 C 169.007812 282.730469 168.453125 282.113281 167.925781 281.472656 C 167.398438 280.832031 166.90625 280.167969 166.445312 279.476562 C 165.984375 278.789062 165.558594 278.078125 165.167969 277.347656 C 164.777344 276.613281 164.421875 275.867188 164.105469 275.101562 C 163.789062 274.335938 163.507812 273.554688 163.269531 272.761719 C 163.027344 271.96875 162.828125 271.164062 162.664062 270.351562 C 162.503906 269.535156 162.378906 268.71875 162.300781 267.894531 C 162.21875 267.066406 162.179688 266.238281 162.179688 265.410156 L 162.179688 165.210938 C 162.179688 164.382812 162.21875 163.554688 162.300781 162.730469 C 162.378906 161.90625 162.503906 161.085938 162.664062 160.273438 C 162.824219 159.457031 163.027344 158.65625 163.269531 157.859375 C 163.507812 157.070312 163.789062 156.289062 164.105469 155.523438 C 164.421875 154.757812 164.777344 154.007812 165.167969 153.277344 C 165.558594 152.542969 165.984375 151.832031 166.445312 151.144531 C 166.90625 150.457031 167.398438 149.789062 167.925781 149.148438 C 168.453125 148.507812 169.007812 147.894531 169.59375 147.308594 C 170.179688 146.722656 170.792969 146.167969 171.433594 145.640625 C 172.074219 145.113281 172.742188 144.621094 173.429688 144.160156 C 174.121094 143.699219 174.832031 143.273438 175.5625 142.882812 C 176.292969 142.492188 177.042969 142.136719 177.808594 141.820312 C 178.574219 141.503906 179.355469 141.222656 180.148438 140.984375 C 180.941406 140.742188 181.746094 140.539062 182.558594 140.378906 C 183.371094 140.214844 184.191406 140.09375 185.015625 140.015625 C 185.839844 139.933594 186.667969 139.890625 187.5 139.890625 Z M 187.5 139.890625 "/></g><g clip-rule="nonzero" clip-path="url(#42b0de7ecf)"><path style=" stroke:none;fill-rule:nonzero;fill:#ffffff;fill-opacity:1;" d="M 212.816406 102.609375 C 212.816406 103.4375 212.777344 104.265625 212.695312 105.089844 C 212.617188 105.914062 212.492188 106.734375 212.332031 107.546875 C 212.167969 108.359375 211.96875 109.164062 211.726562 109.957031 C 211.488281 110.75 211.207031 111.53125 210.890625 112.296875 C 210.574219 113.0625 210.21875 113.8125 209.828125 114.542969 C 209.4375 115.273438 209.011719 115.984375 208.550781 116.675781 C 208.089844 117.363281 207.597656 118.027344 207.070312 118.671875 C 206.542969 119.3125 205.988281 119.925781 205.402344 120.511719 C 204.816406 121.097656 204.203125 121.65625 203.5625 122.179688 C 202.921875 122.707031 202.253906 123.199219 201.5625 123.660156 C 200.875 124.121094 200.164062 124.546875 199.433594 124.9375 C 198.703125 125.328125 197.953125 125.683594 197.1875 126 C 196.421875 126.316406 195.640625 126.597656 194.847656 126.835938 C 194.054688 127.078125 193.25 127.277344 192.4375 127.441406 C 191.625 127.601562 190.804688 127.722656 189.980469 127.804688 C 189.15625 127.886719 188.328125 127.929688 187.5 127.929688 C 186.667969 127.929688 185.839844 127.886719 185.015625 127.804688 C 184.191406 127.722656 183.371094 127.601562 182.558594 127.441406 C 181.746094 127.277344 180.941406 127.078125 180.148438 126.835938 C 179.355469 126.597656 178.574219 126.316406 177.808594 126 C 177.042969 125.683594 176.292969 125.328125 175.5625 124.9375 C 174.832031 124.546875 174.121094 124.121094 173.429688 123.660156 C 172.742188 123.199219 172.074219 122.707031 171.433594 122.179688 C 170.792969 121.65625 170.179688 121.097656 169.59375 120.511719 C 169.007812 119.925781 168.453125 119.3125 167.925781 118.671875 C 167.398438 118.027344 166.90625 117.363281 166.445312 116.675781 C 165.984375 115.984375 165.558594 115.273438 165.167969 114.542969 C 164.777344 113.8125 164.421875 113.0625 164.105469 112.296875 C 163.789062 111.53125 163.507812 110.75 163.269531 109.957031 C 163.027344 109.164062 162.828125 108.359375 162.664062 107.546875 C 162.503906 106.734375 162.378906 105.914062 162.300781 105.089844 C 162.21875 104.265625 162.179688 103.4375 162.179688 102.609375 C 162.179688 101.777344 162.21875 100.953125 162.300781 100.125 C 162.378906 99.300781 162.503906 98.480469 162.664062 97.667969 C 162.824219 96.855469 163.027344 96.050781 163.269531 95.257812 C 163.507812 94.464844 163.789062 93.683594 164.105469 92.917969 C 164.421875 92.152344 164.777344 91.402344 165.167969 90.671875 C 165.558594 89.941406 165.984375 89.230469 166.445312 88.539062 C 166.90625 87.851562 167.398438 87.183594 167.925781 86.546875 C 168.453125 85.902344 169.007812 85.289062 169.59375 84.703125 C 170.179688 84.117188 170.792969 83.5625 171.433594 83.035156 C 172.074219 82.507812 172.742188 82.015625 173.429688 81.554688 C 174.121094 81.09375 174.832031 80.667969 175.5625 80.277344 C 176.292969 79.886719 177.042969 79.53125 177.808594 79.214844 C 178.574219 78.898438 179.355469 78.617188 180.148438 78.378906 C 180.941406 78.136719 181.746094 77.933594 182.558594 77.773438 C 183.371094 77.613281 184.191406 77.488281 185.015625 77.410156 C 185.839844 77.328125 186.667969 77.289062 187.5 77.289062 C 188.328125 77.289062 189.15625 77.328125 189.980469 77.410156 C 190.804688 77.488281 191.625 77.613281 192.4375 77.773438 C 193.25 77.933594 194.054688 78.136719 194.847656 78.378906 C 195.640625 78.617188 196.421875 78.898438 197.1875 79.214844 C 197.953125 79.53125 198.703125 79.886719 199.433594 80.277344 C 200.164062 80.667969 200.875 81.09375 201.5625 81.554688 C 202.253906 82.015625 202.921875 82.507812 203.5625 83.035156 C 204.203125 83.5625 204.816406 84.117188 205.402344 84.703125 C 205.988281 85.289062 206.542969 85.902344 207.070312 86.546875 C 207.597656 87.183594 208.089844 87.851562 208.550781 88.539062 C 209.011719 89.230469 209.4375 89.941406 209.828125 90.671875 C 210.21875 91.402344 210.574219 92.152344 210.890625 92.917969 C 211.207031 93.683594 211.488281 94.464844 211.726562 95.257812 C 211.96875 96.050781 212.167969 96.855469 212.332031 97.667969 C 212.492188 98.480469 212.617188 99.300781 212.695312 100.125 C 212.777344 100.953125 212.816406 101.777344 212.816406 102.609375 Z M 212.816406 102.609375 "/></g></g></svg>