<svg xmlns="http://www.w3.org/2000/svg" xmlns:xlink="http://www.w3.org/1999/xlink" width="500" zoomAndPan="magnify" viewBox="0 0 375 374.999991" height="500" preserveAspectRatio="xMidYMid meet" version="1.2"><defs><clipPath id="4d60bfbf22"><path d="M 7.96875 7.96875 L 367.03125 7.96875 L 367.03125 367.03125 L 7.96875 367.03125 Z M 7.96875 7.96875 "/></clipPath><clipPath id="2ad208dc16"><path d="M 187.5 7.96875 C 88.347656 7.96875 7.96875 88.347656 7.96875 187.5 C 7.96875 286.652344 88.347656 367.03125 187.5 367.03125 C 286.652344 367.03125 367.03125 286.652344 367.03125 187.5 C 367.03125 88.347656 286.652344 7.96875 187.5 7.96875 Z M 187.5 7.96875 "/></clipPath><clipPath id="1bedd2e73a"><path d="M 38.789062 38.789062 L 336.355469 38.789062 L 336.355469 336.355469 L 38.789062 336.355469 Z M 38.789062 38.789062 "/></clipPath></defs><g id="6dbce5128a"><g clip-rule="nonzero" clip-path="url(#4d60bfbf22)"><g clip-rule="nonzero" clip-path="url(#2ad208dc16)"><path style=" stroke:none;fill-rule:nonzero;fill:#ef4c28;fill-opacity:1;" d="M 7.96875 7.96875 L 367.03125 7.96875 L 367.03125 367.03125 L 7.96875 367.03125 Z M 7.96875 7.96875 "/></g></g><g clip-rule="nonzero" clip-path="url(#1bedd2e73a)"><path style=" stroke:none;fill-rule:evenodd;fill:#ef4c28;fill-opacity:1;" d="M 38.789062 187.507812 C 38.789062 105.371094 105.371094 38.789062 187.507812 38.789062 C 269.640625 38.789062 336.210938 105.371094 336.210938 187.507812 C 336.210938 269.644531 269.640625 336.210938 187.507812 336.210938 C 105.371094 336.210938 38.789062 269.644531 38.789062 187.507812 Z M 38.789062 187.507812 "/></g><path style=" stroke:none;fill-rule:evenodd;fill:#ffffff;fill-opacity:1;" d="M 138.421875 243.441406 C 131.164062 234.523438 132.523438 221.296875 141.4375 214.054688 L 246.5625 128.539062 C 255.464844 121.300781 268.691406 122.65625 275.949219 131.574219 C 283.203125 140.488281 281.832031 153.71875 272.929688 160.957031 L 167.804688 246.472656 C 158.890625 253.710938 145.679688 252.355469 138.421875 243.441406 Z M 138.421875 243.441406 "/><path style=" stroke:none;fill-rule:evenodd;fill:#ffffff;fill-opacity:1;" d="M 102.082031 166.058594 C 110.996094 158.816406 124.226562 160.175781 131.484375 169.089844 L 170.191406 216.679688 C 177.445312 225.582031 176.074219 238.808594 167.160156 246.066406 C 158.242188 253.320312 145.027344 251.949219 137.773438 243.046875 L 99.066406 195.457031 C 91.808594 186.542969 93.167969 173.3125 102.082031 166.058594 Z M 102.082031 166.058594 "/></g></svg>