<svg xmlns="http://www.w3.org/2000/svg" xmlns:xlink="http://www.w3.org/1999/xlink" width="500" zoomAndPan="magnify" viewBox="0 0 375 374.999991" height="500" preserveAspectRatio="xMidYMid meet" version="1.2"><defs><clipPath id="5071f1ac80"><path d="M 9.535156 9.535156 L 365.464844 9.535156 L 365.464844 365.464844 L 9.535156 365.464844 Z M 9.535156 9.535156 "/></clipPath><clipPath id="62d55c2fde"><path d="M 187.5 9.535156 C 89.210938 9.535156 9.535156 89.210938 9.535156 187.5 C 9.535156 285.789062 89.210938 365.464844 187.5 365.464844 C 285.789062 365.464844 365.464844 285.789062 365.464844 187.5 C 365.464844 89.210938 285.789062 9.535156 187.5 9.535156 Z M 187.5 9.535156 "/></clipPath><clipPath id="a2012d0fbf"><path d="M 91.667969 63 L 291.566406 63 L 291.566406 311.574219 L 91.667969 311.574219 Z M 91.667969 63 "/></clipPath></defs><g id="f3b1da8013"><g clip-rule="nonzero" clip-path="url(#5071f1ac80)"><g clip-rule="nonzero" clip-path="url(#62d55c2fde)"><path style=" stroke:none;fill-rule:nonzero;fill:#ef4c28;fill-opacity:1;" d="M 9.535156 9.535156 L 365.464844 9.535156 L 365.464844 365.464844 L 9.535156 365.464844 Z M 9.535156 9.535156 "/></g></g><g clip-rule="nonzero" clip-path="url(#a2012d0fbf)"><path style=" stroke:none;fill-rule:nonzero;fill:#ffffff;fill-opacity:1;" d="M 122.933594 311.425781 C 121.234375 311.425781 119.53125 310.902344 118.089844 309.855469 L 103.257812 299.144531 C 96.054688 293.9375 91.75 285.523438 91.75 276.628906 L 91.75 96.265625 C 91.75 78.011719 106.601562 63.160156 124.855469 63.160156 L 258.558594 63.160156 C 276.808594 63.160156 291.660156 78.011719 291.660156 96.265625 L 291.660156 276.621094 C 291.660156 285.523438 287.351562 293.941406 280.136719 299.144531 L 265.289062 309.855469 C 262.398438 311.945312 258.488281 311.941406 255.601562 309.855469 L 237.503906 296.796875 L 219.425781 309.851562 C 216.527344 311.941406 212.621094 311.933594 209.734375 309.851562 L 191.675781 296.800781 L 173.605469 309.851562 C 170.710938 311.941406 166.804688 311.941406 163.914062 309.851562 L 145.847656 296.800781 L 127.785156 309.851562 C 126.335938 310.894531 124.636719 311.421875 122.941406 311.421875 Z M 237.5 278.320312 C 239.195312 278.320312 240.898438 278.84375 242.339844 279.886719 L 260.441406 292.945312 L 270.441406 285.722656 C 273.359375 283.621094 275.101562 280.222656 275.101562 276.625 L 275.101562 96.265625 C 275.101562 87.136719 267.675781 79.710938 258.550781 79.710938 L 124.851562 79.710938 C 115.722656 79.710938 108.300781 87.136719 108.300781 96.265625 L 108.300781 276.628906 C 108.300781 280.222656 110.035156 283.621094 112.949219 285.730469 L 122.933594 292.941406 L 140.996094 279.890625 C 143.890625 277.800781 147.800781 277.800781 150.691406 279.890625 L 168.757812 292.941406 L 186.828125 279.890625 C 189.722656 277.800781 193.628906 277.804688 196.519531 279.890625 L 214.574219 292.941406 L 232.65625 279.890625 C 234.105469 278.847656 235.804688 278.324219 237.5 278.324219 Z M 237.5 278.320312 "/></g><path style=" stroke:none;fill-rule:nonzero;fill:#ffffff;fill-opacity:1;" d="M 246.105469 186.101562 L 137.292969 186.101562 C 132.726562 186.101562 129.019531 182.394531 129.019531 177.824219 C 129.019531 173.257812 132.726562 169.550781 137.292969 169.550781 L 246.105469 169.550781 C 250.675781 169.550781 254.382812 173.257812 254.382812 177.824219 C 254.382812 182.394531 250.675781 186.101562 246.105469 186.101562 Z M 246.105469 186.101562 "/><path style=" stroke:none;fill-rule:nonzero;fill:#ffffff;fill-opacity:1;" d="M 246.105469 143.953125 L 137.292969 143.953125 C 132.726562 143.953125 129.019531 140.246094 129.019531 135.675781 C 129.019531 131.109375 132.726562 127.402344 137.292969 127.402344 L 246.105469 127.402344 C 250.675781 127.402344 254.382812 131.109375 254.382812 135.675781 C 254.382812 140.246094 250.675781 143.953125 246.105469 143.953125 Z M 246.105469 143.953125 "/><path style=" stroke:none;fill-rule:nonzero;fill:#ffffff;fill-opacity:1;" d="M 246.105469 228.253906 L 137.292969 228.253906 C 132.726562 228.253906 129.019531 224.546875 129.019531 219.976562 C 129.019531 215.410156 132.726562 211.703125 137.292969 211.703125 L 246.105469 211.703125 C 250.675781 211.703125 254.382812 215.410156 254.382812 219.976562 C 254.382812 224.546875 250.675781 228.253906 246.105469 228.253906 Z M 246.105469 228.253906 "/></g></svg>