<svg xmlns="http://www.w3.org/2000/svg" xmlns:xlink="http://www.w3.org/1999/xlink" width="500" zoomAndPan="magnify" viewBox="0 0 375 374.999991" height="500" preserveAspectRatio="xMidYMid meet" version="1.2"><defs><clipPath id="a63f0189ff"><path d="M 8.328125 8.328125 L 366.671875 8.328125 L 366.671875 366.671875 L 8.328125 366.671875 Z M 8.328125 8.328125 "/></clipPath><clipPath id="2e17fe6de7"><path d="M 187.5 8.328125 C 88.546875 8.328125 8.328125 88.546875 8.328125 187.5 C 8.328125 286.453125 88.546875 366.671875 187.5 366.671875 C 286.453125 366.671875 366.671875 286.453125 366.671875 187.5 C 366.671875 88.546875 286.453125 8.328125 187.5 8.328125 Z M 187.5 8.328125 "/></clipPath><clipPath id="980f1b54b9"><path d="M 49.535156 52.316406 L 317.59375 52.316406 L 317.59375 289.339844 L 49.535156 289.339844 Z M 49.535156 52.316406 "/></clipPath></defs><g id="385e763e97"><g clip-rule="nonzero" clip-path="url(#a63f0189ff)"><g clip-rule="nonzero" clip-path="url(#2e17fe6de7)"><path style=" stroke:none;fill-rule:nonzero;fill:#ef4c28;fill-opacity:1;" d="M 8.328125 8.328125 L 366.671875 8.328125 L 366.671875 366.671875 L 8.328125 366.671875 Z M 8.328125 8.328125 "/></g></g><g clip-rule="nonzero" clip-path="url(#980f1b54b9)"><path style=" stroke:none;fill-rule:nonzero;fill:#ef4c28;fill-opacity:1;" d="M 199.511719 61.945312 L 314.644531 261.371094 C 321.773438 273.683594 312.863281 289.128906 298.609375 289.128906 L 68.34375 289.128906 C 54.089844 289.128906 45.179688 273.683594 52.304688 261.371094 L 167.4375 61.945312 C 174.566406 49.632812 192.386719 49.632812 199.511719 61.945312 Z M 199.511719 61.945312 "/></g><path style=" stroke:none;fill-rule:nonzero;fill:#ffffff;fill-opacity:1;" d="M 66.722656 258.941406 L 174.402344 72.421875 C 178.453125 65.453125 188.550781 65.453125 192.546875 72.421875 L 300.226562 258.941406 C 304.277344 265.90625 299.199219 274.65625 291.15625 274.65625 L 75.796875 274.65625 C 67.699219 274.65625 62.675781 265.90625 66.722656 258.941406 Z M 66.722656 258.941406 "/><path style=" stroke:none;fill-rule:nonzero;fill:#ef4c28;fill-opacity:1;" d="M 78.980469 261.425781 L 183.476562 80.414062 L 287.96875 261.425781 Z M 78.980469 261.425781 "/><path style=" stroke:none;fill-rule:nonzero;fill:#ffffff;fill-opacity:1;" d="M 192.007812 237.179688 C 192.007812 241.875 188.175781 245.710938 183.476562 245.710938 C 178.777344 245.710938 174.945312 241.875 174.945312 237.179688 C 174.945312 232.480469 178.777344 228.648438 183.476562 228.648438 C 188.175781 228.59375 192.007812 232.425781 192.007812 237.179688 Z M 198.109375 139.167969 C 198.488281 131.820312 191.792969 125.664062 183.476562 125.664062 C 175.160156 125.664062 168.515625 131.820312 168.84375 139.167969 L 178.128906 221.25 L 188.769531 221.25 Z M 198.109375 139.167969 "/></g></svg>