<svg xmlns="http://www.w3.org/2000/svg" xmlns:xlink="http://www.w3.org/1999/xlink" width="500" zoomAndPan="magnify" viewBox="0 0 375 374.999991" height="500" preserveAspectRatio="xMidYMid meet" version="1.2"><defs><clipPath id="82a3910a65"><path d="M 17.378906 17.378906 L 357.621094 17.378906 L 357.621094 357.621094 L 17.378906 357.621094 Z M 17.378906 17.378906 "/></clipPath><clipPath id="df7ca665ac"><path d="M 187.5 17.378906 C 93.542969 17.378906 17.378906 93.542969 17.378906 187.5 C 17.378906 281.457031 93.542969 357.621094 187.5 357.621094 C 281.457031 357.621094 357.621094 281.457031 357.621094 187.5 C 357.621094 93.542969 281.457031 17.378906 187.5 17.378906 Z M 187.5 17.378906 "/></clipPath><clipPath id="aa54d9427d"><path d="M 101.390625 97.738281 L 273.542969 97.738281 L 273.542969 269.960938 L 101.390625 269.960938 Z M 101.390625 97.738281 "/></clipPath></defs><g id="a0c822771e"><g clip-rule="nonzero" clip-path="url(#82a3910a65)"><g clip-rule="nonzero" clip-path="url(#df7ca665ac)"><path style=" stroke:none;fill-rule:nonzero;fill:#ef4c28;fill-opacity:1;" d="M 17.378906 17.378906 L 357.621094 17.378906 L 357.621094 357.621094 L 17.378906 357.621094 Z M 17.378906 17.378906 "/></g></g><g clip-rule="nonzero" clip-path="url(#aa54d9427d)"><path style=" stroke:none;fill-rule:nonzero;fill:#ffffff;fill-opacity:1;" d="M 270.882812 270.078125 L 104.128906 270.078125 C 102.617188 270.078125 101.394531 268.851562 101.394531 267.34375 L 101.394531 251.765625 C 101.394531 225.851562 122.480469 204.765625 148.394531 204.765625 L 226.613281 204.765625 C 252.53125 204.765625 273.617188 225.851562 273.617188 251.765625 L 273.617188 267.34375 C 273.617188 268.851562 272.390625 270.078125 270.882812 270.078125 Z M 187.503906 197.414062 C 160.023438 197.414062 137.667969 175.058594 137.667969 147.578125 C 137.667969 120.09375 160.023438 97.738281 187.503906 97.738281 C 214.988281 97.738281 237.34375 120.09375 237.34375 147.578125 C 237.34375 175.058594 214.988281 197.414062 187.503906 197.414062 Z M 187.503906 197.414062 "/></g></g></svg>