<svg width="100" height="100" viewBox="0 0 100 100" xmlns="http://www.w3.org/2000/svg">
  <!-- Background with Shopee orange gradient -->
  <defs>
    <linearGradient id="bgGradient" x1="0%" y1="0%" x2="100%" y2="100%">
      <stop offset="0%" style="stop-color:#ff6b35;stop-opacity:1" />
      <stop offset="100%" style="stop-color:#ee4d2d;stop-opacity:1" />
    </linearGradient>
  </defs>
  
  <!-- Orange background with rounded corners -->
  <rect width="100" height="100" fill="url(#bgGradient)" rx="10"/>
  
  <!-- White shopping bag shape -->
  <path d="M15 25 Q15 20 20 20 L80 20 Q85 20 85 25 L85 30 L75 30 L75 35 Q75 37 73 37 L72 37 Q70 37 70 35 L70 30 L30 30 L30 35 Q30 37 28 37 L27 37 Q25 37 25 35 L25 30 L15 30 Z" fill="white"/>
  
  <!-- Shopping bag body -->
  <path d="M18 30 L82 30 Q85 30 85 33 L82 80 Q82 85 77 85 L23 85 Q18 85 18 80 L15 33 Q15 30 18 30 Z" fill="white"/>
  
  <!-- Large S letter in Shopee orange -->
  <path d="M35 45 Q35 42 38 42 L48 42 Q52 42 52 45 Q52 48 48 48 L42 48 L42 52 L48 52 Q52 52 52 55 Q52 58 48 58 L38 58 Q35 58 35 55 L35 52 Q35 49 38 49 L44 49 L44 45 L38 45 Q35 45 35 45 Z M55 45 Q62 42 65 48 Q68 54 65 60 Q62 66 55 63 Q48 60 48 54 Q48 48 55 45 Z" fill="#ee4d2d"/>
  
  <!-- Stylized S -->
  <text x="50" y="62" text-anchor="middle" fill="#ee4d2d" font-family="Arial Black, sans-serif" font-size="28" font-weight="900">S</text>
</svg>
